<?xml version="1.0" encoding="UTF-8"?>
<svg version="1.1" xmlns="http://www.w3.org/2000/svg" width="500" height="500">
<path d="M0 0 C165 0 330 0 500 0 C500 165 500 330 500 500 C335 500 170 500 0 500 C0 335 0 170 0 0 Z " fill="#FEFEFE" transform="translate(0,0)"/>
<path d="M0 0 C16.66575773 1.99233051 33.38612217 3.24392954 50.11773682 4.53485107 C56.68591381 5.04260732 63.25344369 5.55872025 69.82099915 6.07444382 C71.40276003 6.1985931 72.98453681 6.32254002 74.56632996 6.44627762 C87.00294048 7.4198041 99.42917702 8.47916579 111.84765625 9.6640625 C111.84765625 9.9940625 111.84765625 10.3240625 111.84765625 10.6640625 C66.30765625 11.1590625 66.30765625 11.1590625 19.84765625 11.6640625 C24.79765625 16.1190625 24.79765625 16.1190625 29.84765625 20.6640625 C30.17765625 20.9940625 30.50765625 21.3240625 30.84765625 21.6640625 C33.90296862 21.9461121 36.94202689 22.1665015 40.00390625 22.34765625 C40.95638748 22.40740631 41.90886871 22.46715637 42.89021301 22.52871704 C46.04240655 22.72470193 49.19498722 22.91339242 52.34765625 23.1015625 C54.53931243 23.23550102 56.73096277 23.36953515 58.92260742 23.50366211 C74.35300449 24.43829167 89.78771264 25.24049544 105.22924805 25.96459961 C116.04335259 26.47215923 126.85241512 27.03525014 137.66015625 27.6640625 C138.35933167 27.70473846 139.05850708 27.74541443 139.77886963 27.787323 C142.59284177 27.95124489 145.40680122 28.11538108 148.22073364 28.27998352 C157.15784035 28.80141106 166.09653125 29.29447986 175.03515625 29.7890625 C176.63321976 29.87759765 178.23128292 29.96613912 179.8293457 30.0546875 C183.50209945 30.25811032 187.17487169 30.46119668 190.84765625 30.6640625 C190.84765625 30.9940625 190.84765625 31.3240625 190.84765625 31.6640625 C140.35765625 31.6640625 89.86765625 31.6640625 37.84765625 31.6640625 C39.82765625 36.6140625 41.80765625 41.5640625 43.84765625 46.6640625 C47.5032842 64.94220226 44.31721771 81.81119024 34.84765625 97.6640625 C32.41957774 101.26399358 29.81755894 104.4997019 26.84765625 107.6640625 C25.996875 108.59412109 25.996875 108.59412109 25.12890625 109.54296875 C12.91486585 121.51594257 -4.54373422 126.16880319 -21.14794922 126.01611328 C-39.59206594 125.48219495 -54.16539004 117.09888812 -66.83984375 104.0390625 C-71.93560438 98.2114639 -75.04712229 91.7088724 -78.15234375 84.6640625 C-78.52488281 83.84550781 -78.89742188 83.02695312 -79.28125 82.18359375 C-84.4065902 67.35917928 -82.1854064 48.78575412 -75.8671875 34.82421875 C-67.75594349 18.7147007 -54.71405259 7.3697749 -37.71875 1.47265625 C-24.85446337 -2.36922748 -13.13162635 -1.63214424 0 0 Z " fill="#251A17" transform="translate(148.15234375,187.3359375)"/>
<path d="M0 0 C16.66575773 1.99233051 33.38612217 3.24392954 50.11773682 4.53485107 C56.68591381 5.04260732 63.25344369 5.55872025 69.82099915 6.07444382 C71.40276003 6.1985931 72.98453681 6.32254002 74.56632996 6.44627762 C87.00294048 7.4198041 99.42917702 8.47916579 111.84765625 9.6640625 C111.84765625 9.9940625 111.84765625 10.3240625 111.84765625 10.6640625 C66.30765625 11.1590625 66.30765625 11.1590625 19.84765625 11.6640625 C24.79765625 16.1190625 24.79765625 16.1190625 29.84765625 20.6640625 C30.17765625 20.9940625 30.50765625 21.3240625 30.84765625 21.6640625 C33.90296862 21.9461121 36.94202689 22.1665015 40.00390625 22.34765625 C40.95638748 22.40740631 41.90886871 22.46715637 42.89021301 22.52871704 C46.04240655 22.72470193 49.19498722 22.91339242 52.34765625 23.1015625 C54.53931243 23.23550102 56.73096277 23.36953515 58.92260742 23.50366211 C74.35300449 24.43829167 89.78771264 25.24049544 105.22924805 25.96459961 C116.04335259 26.47215923 126.85241512 27.03525014 137.66015625 27.6640625 C138.35933167 27.70473846 139.05850708 27.74541443 139.77886963 27.787323 C142.59284177 27.95124489 145.40680122 28.11538108 148.22073364 28.27998352 C157.15784035 28.80141106 166.09653125 29.29447986 175.03515625 29.7890625 C176.63321976 29.87759765 178.23128292 29.96613912 179.8293457 30.0546875 C183.50209945 30.25811032 187.17487169 30.46119668 190.84765625 30.6640625 C190.84765625 30.9940625 190.84765625 31.3240625 190.84765625 31.6640625 C140.35765625 31.6640625 89.86765625 31.6640625 37.84765625 31.6640625 C39.82765625 36.6140625 41.80765625 41.5640625 43.84765625 46.6640625 C47.5032842 64.94220226 44.31721771 81.81119024 34.84765625 97.6640625 C32.41957774 101.26399358 29.81755894 104.4997019 26.84765625 107.6640625 C25.996875 108.59412109 25.996875 108.59412109 25.12890625 109.54296875 C12.91486585 121.51594257 -4.54373422 126.16880319 -21.14794922 126.01611328 C-39.59206594 125.48219495 -54.16539004 117.09888812 -66.83984375 104.0390625 C-71.93560438 98.2114639 -75.04712229 91.7088724 -78.15234375 84.6640625 C-78.52488281 83.84550781 -78.89742188 83.02695312 -79.28125 82.18359375 C-84.4065902 67.35917928 -82.1854064 48.78575412 -75.8671875 34.82421875 C-67.75594349 18.7147007 -54.71405259 7.3697749 -37.71875 1.47265625 C-24.85446337 -2.36922748 -13.13162635 -1.63214424 0 0 Z M-51.15234375 26.6640625 C-51.93480469 27.31117188 -52.71726562 27.95828125 -53.5234375 28.625 C-60.97743809 35.38765146 -67.50617162 45.60607325 -68.3293457 55.87133789 C-68.94842221 71.27420765 -68.94842221 71.27420765 -64.15234375 85.6640625 C-63.66636719 86.581875 -63.18039063 87.4996875 -62.6796875 88.4453125 C-56.64180631 98.83674868 -48.30480724 106.18508926 -37.15234375 110.6640625 C-36.29511719 111.02886719 -35.43789062 111.39367187 -34.5546875 111.76953125 C-24.23267006 114.48335673 -9.25390978 114.55984259 0.5078125 110.05078125 C12.95947631 102.67124761 21.6973663 94.33828193 26.84765625 80.6640625 C27.21375 79.77460938 27.57984375 78.88515625 27.95703125 77.96875 C30.91626579 66.98843236 30.32924436 52.67039346 24.84765625 42.6640625 C24.35007812 41.73464844 23.8525 40.80523437 23.33984375 39.84765625 C16.10292258 27.47757006 5.17350894 19.76604763 -8.60546875 15.9921875 C-24.44317465 13.95174686 -38.64411359 16.18137211 -51.15234375 26.6640625 Z " fill="#251A17" transform="translate(148.15234375,187.3359375)"/>
<path d="M0 0 C0.76107056 -0.00014603 1.52214111 -0.00029205 2.30627441 -0.0004425 C4.82774686 0.00025546 7.34914589 0.00804245 9.87060547 0.01586914 C11.61652588 0.01773373 13.3624468 0.01915744 15.10836792 0.02015686 C19.70824625 0.0239788 24.30809311 0.03380634 28.90795898 0.04486084 C33.59993056 0.0550819 38.29190722 0.05965597 42.98388672 0.06469727 C52.19353598 0.07542888 61.40316186 0.09250145 70.61279297 0.11352539 C70.15089568 1.56020125 69.68373465 3.00519721 69.21435547 4.44946289 C68.82497803 5.65675049 68.82497803 5.65675049 68.42773438 6.88842773 C67.61279297 9.11352539 67.61279297 9.11352539 65.98779297 11.73852539 C64.20393455 14.81973539 64.08975574 17.59592497 63.61279297 21.11352539 C63.13751313 22.53590892 62.6260078 23.94663095 62.08154297 25.34399414 C61.80761719 26.05322021 61.53369141 26.76244629 61.25146484 27.49316406 C60.93532227 28.29524292 60.93532227 28.29524292 60.61279297 29.11352539 C56.21708502 29.20075069 51.82160025 29.25399408 47.42529297 29.30102539 C45.55647461 29.33873047 45.55647461 29.33873047 43.64990234 29.37719727 C42.44785156 29.38686523 41.24580078 29.3965332 40.00732422 29.40649414 C38.34987183 29.43005981 38.34987183 29.43005981 36.65893555 29.45410156 C33.2473314 29.0726647 31.50197082 27.87135622 28.61279297 26.11352539 C26.91093116 26.79385903 25.21125933 27.49102426 23.57568359 28.31811523 C19.95433197 29.78557339 16.2154773 29.50497384 12.36279297 29.42602539 C11.56099609 29.42924805 10.75919922 29.4324707 9.93310547 29.43579102 C6.003339 29.39964768 3.94760901 29.33673608 0.61279297 27.11352539 C-1.67117735 27.4595815 -3.32129741 28.08057058 -5.38720703 29.11352539 C-7.88957619 29.20641221 -10.36383389 29.23934951 -12.86621094 29.22705078 C-13.63703506 29.22719681 -14.40785919 29.22734283 -15.20204163 29.22749329 C-17.75597932 29.22679529 -20.30984454 29.21900814 -22.86376953 29.21118164 C-24.63211019 29.20931706 -26.40045136 29.20789335 -28.16879272 29.20689392 C-32.82785462 29.20307189 -37.48688545 29.19324427 -42.14593506 29.18218994 C-46.89822977 29.17196908 -51.6505295 29.16739485 -56.40283203 29.16235352 C-65.7309707 29.15162173 -75.05908628 29.13454906 -84.38720703 29.11352539 C-83.86039683 24.77026795 -83.13373476 20.91020737 -81.53955078 16.83618164 C-81.18183594 15.9112793 -80.82412109 14.98637695 -80.45556641 14.03344727 C-79.89579102 12.61902344 -79.89579102 12.61902344 -79.32470703 11.17602539 C-78.94765625 10.20600586 -78.57060547 9.23598633 -78.18212891 8.23657227 C-77.25708237 5.85955396 -76.32531521 3.48541222 -75.38720703 1.11352539 C-74.15358932 1.11685631 -74.15358932 1.11685631 -72.89505005 1.12025452 C-65.15498127 1.14026877 -57.41492499 1.15550533 -49.67483711 1.16533756 C-45.69532291 1.17056228 -41.71583005 1.17765249 -37.73632812 1.18896484 C-33.8978746 1.1998083 -30.05944163 1.20580533 -26.22097397 1.20840263 C-24.75451204 1.21025424 -23.28805126 1.21386983 -21.82159805 1.21925545 C-19.77199091 1.22648522 -17.72246935 1.22751551 -15.67285156 1.22705078 C-14.50480988 1.22927139 -13.33676819 1.231492 -12.1333313 1.23377991 C-8.02300701 1.05378621 -4.29938273 -0.02140428 0 0 Z " fill="#2F1D18" transform="translate(276.38720703125,266.886474609375)"/>
<path d="M0 0 C1.77138336 0.00022659 1.77138336 0.00022659 3.57855225 0.00045776 C5.483414 0.01594162 5.483414 0.01594162 7.42675781 0.03173828 C8.73066467 0.03456818 10.03457153 0.03739807 11.37799072 0.04031372 C14.83697231 0.04793357 18.29578474 0.0675677 21.75469971 0.08972168 C25.28728955 0.11021575 28.81990685 0.11932304 32.35253906 0.12939453 C39.2783896 0.1508153 46.20412807 0.18493122 53.12988281 0.22705078 C52.69928886 1.66078086 52.25614066 3.09074373 51.80786133 4.51904297 C51.56246109 5.31574402 51.31706085 6.11244507 51.06422424 6.93328857 C49.56254637 10.61983382 47.00678676 12.88615101 44.06738281 15.47705078 C39.86109549 19.14665062 39.86109549 19.14665062 37.07128906 23.89892578 C36.12988281 26.22705078 36.12988281 26.22705078 34.08691406 28.02783203 C29.94160897 29.70895312 26.24111091 29.55071921 21.81738281 29.41455078 C20.56344727 29.39424805 20.56344727 29.39424805 19.28417969 29.37353516 C17.23246783 29.33836295 15.18109006 29.28456126 13.12988281 29.22705078 C13.29488281 28.25767578 13.45988281 27.28830078 13.62988281 26.28955078 C13.98980575 24.26721507 13.98980575 24.26721507 14.12988281 22.22705078 C13.31583984 22.85933594 13.31583984 22.85933594 12.48535156 23.50439453 C11.76992188 24.05224609 11.05449219 24.60009766 10.31738281 25.16455078 C9.6096875 25.70982422 8.90199219 26.25509766 8.17285156 26.81689453 C4.20682817 29.55443649 0.35383786 29.3921119 -4.27563477 29.41992188 C-5.02721359 29.42809937 -5.77879242 29.43627686 -6.55314636 29.44470215 C-9.04030568 29.46951385 -11.5274081 29.48606081 -14.01464844 29.50048828 C-15.29009805 29.5084738 -15.29009805 29.5084738 -16.59131432 29.51662064 C-21.09154737 29.5433332 -25.59175286 29.56271458 -30.09204102 29.57714844 C-33.81397051 29.59049131 -37.53535221 29.61835247 -41.25708008 29.65917969 C-45.753957 29.70850808 -50.25033683 29.73326947 -54.74747276 29.74037552 C-56.45908726 29.74708534 -58.17069079 29.76230052 -59.88215065 29.78626633 C-62.28082539 29.8179404 -64.67758646 29.8179523 -67.07641602 29.81054688 C-68.13102524 29.83515488 -68.13102524 29.83515488 -69.2069397 29.86026001 C-72.98018755 29.8127185 -75.395183 29.18319717 -78.32206726 26.89590454 C-80.87011719 24.22705078 -80.87011719 24.22705078 -81.43261719 20.94189453 C-80.77319311 16.58694801 -79.52124772 12.85415816 -77.87011719 8.78955078 C-77.58394531 8.05800781 -77.29777344 7.32646484 -77.00292969 6.57275391 C-76.30251296 4.78669124 -75.58777908 3.00625422 -74.87011719 1.22705078 C-67.34242939 1.18075788 -59.81475631 1.14519713 -52.28695869 1.12342644 C-48.79167791 1.11297881 -45.29649435 1.09880195 -41.80126953 1.07617188 C-37.78514663 1.05033125 -33.76912622 1.04058612 -29.75292969 1.03173828 C-27.86539474 1.01625443 -27.86539474 1.01625443 -25.93972778 1.00045776 C-24.77867523 1.0003067 -23.61762268 1.00015564 -22.42138672 1 C-21.39546417 0.99555878 -20.36954163 0.99111755 -19.31253052 0.98654175 C-16.87011719 1.22705078 -16.87011719 1.22705078 -14.87011719 3.22705078 C-12.28501864 2.95493515 -10.33326076 2.49317942 -8.07293701 1.19436646 C-5.25619224 -0.04253968 -3.07376351 -0.01313574 0 0 Z " fill="#301D18" transform="translate(275.8701171875,223.77294921875)"/>
<path d="M0 0 C4.45831982 -0.02891546 8.91661569 -0.04676981 13.375 -0.0625 C14.64601562 -0.07087891 15.91703125 -0.07925781 17.2265625 -0.08789062 C19.04414063 -0.09272461 19.04414063 -0.09272461 20.8984375 -0.09765625 C22.57945557 -0.10551147 22.57945557 -0.10551147 24.29443359 -0.11352539 C27 0 27 0 29 1 C28.51098901 7.35714286 28.51098901 7.35714286 26.0625 10.4375 C24 12 24 12 22 12 C22.99 14.64 23.98 17.28 25 20 C20.71 20 16.42 20 12 20 C10.515 16.535 10.515 16.535 9 13 C8.01 15.31 7.02 17.62 6 20 C1.71 20 -2.58 20 -7 20 C-5.03926912 13.13744191 -2.69989727 6.60389038 0 0 Z " fill="#F74B1E" transform="translate(234,272)"/>
<path d="M0 0 C4.12498538 -0.02892385 8.24994485 -0.04677267 12.375 -0.0625 C14.1384375 -0.07506836 14.1384375 -0.07506836 15.9375 -0.08789062 C17.61972656 -0.09272461 17.61972656 -0.09272461 19.3359375 -0.09765625 C20.89127197 -0.10551147 20.89127197 -0.10551147 22.47802734 -0.11352539 C25 0 25 0 27 1 C26.51241322 6.72914461 25.2009811 12.14204044 22 17 C18.30766519 19.66864502 15.78855896 20.36559185 11.26171875 20.29296875 C9.66166992 20.2784668 9.66166992 20.2784668 8.02929688 20.26367188 C6.37510742 20.2259668 6.37510742 20.2259668 4.6875 20.1875 C3.56537109 20.17396484 2.44324219 20.16042969 1.28710938 20.14648438 C-1.47575229 20.1112138 -4.23762829 20.06192235 -7 20 C-5.07443364 13.14381674 -2.7527517 6.56747868 0 0 Z " fill="#F94C1E" transform="translate(204,272)"/>
<path d="M0 0 C0.81533203 -0.01611328 1.63066406 -0.03222656 2.47070312 -0.04882812 C3.25509766 -0.04947266 4.03949219 -0.05011719 4.84765625 -0.05078125 C5.91705444 -0.05525269 5.91705444 -0.05525269 7.00805664 -0.05981445 C9.53716694 0.42821455 10.43197687 1.24459094 11.9375 3.3125 C11.82605992 9.77602468 9.73586347 14.53523349 6.9375 20.3125 C3.3075 20.3125 -0.3225 20.3125 -4.0625 20.3125 C-4.0625 18.9925 -4.0625 17.6725 -4.0625 16.3125 C-5.3825 16.3125 -6.7025 16.3125 -8.0625 16.3125 C-8.7225 17.6325 -9.3825 18.9525 -10.0625 20.3125 C-14.0225 20.3125 -17.9825 20.3125 -22.0625 20.3125 C-15.95708358 4.03138954 -15.95708358 4.03138954 -11.24243164 1.23168945 C-7.57950278 -0.31282025 -3.92438998 -0.01558535 0 0 Z " fill="#FA4C1E" transform="translate(248.0625,228.6875)"/>
<path d="M0 0 C5.65410119 4.55166061 9.34056595 10.09711199 12.7734375 16.44140625 C13.21042969 17.23804688 13.64742188 18.0346875 14.09765625 18.85546875 C19.00221267 29.69711978 18.67876805 44.60473646 14.6484375 55.69140625 C13.74869046 57.63626335 12.79406393 59.55717283 11.7734375 61.44140625 C11.33902344 62.25609375 10.90460938 63.07078125 10.45703125 63.91015625 C5.15391677 72.73357179 -2.76600271 79.50574981 -12.2265625 83.44140625 C-13.97839844 84.21871094 -13.97839844 84.21871094 -15.765625 85.01171875 C-20.94755232 86.93205894 -25.99915288 86.97644299 -31.4765625 86.94140625 C-32.49637207 86.93641113 -33.51618164 86.93141602 -34.56689453 86.92626953 C-42.35044894 86.74606589 -48.49711004 85.53100919 -55.2265625 81.44140625 C-56.02835938 80.99539063 -56.83015625 80.549375 -57.65625 80.08984375 C-68.17259551 73.75170959 -75.29255436 63.70905807 -79.36328125 52.23828125 C-82.49751726 38.45331561 -81.20685086 24.27940174 -73.83984375 12.16015625 C-72.40982451 10.12286856 -70.89090755 8.29111674 -69.2265625 6.44140625 C-68.64132813 5.76464844 -68.05609375 5.08789062 -67.453125 4.390625 C-49.06261823 -15.53867927 -21.08237308 -14.75766116 0 0 Z M-67.41015625 6.24609375 C-72.97755683 12.97486606 -76.16885173 20.00331173 -78.2265625 28.44140625 C-78.50306641 29.41980469 -78.50306641 29.41980469 -78.78515625 30.41796875 C-81.27568083 41.83470977 -77.84432264 53.90615868 -72.0859375 63.76953125 C-64.26591047 75.00671295 -53.62585015 81.84158434 -40.4765625 85.12890625 C-25.84590043 86.53570068 -12.33852336 84.12239288 -0.625 74.73046875 C9.24822979 65.30748397 15.62073674 52.73957073 16.0859375 39.00390625 C15.90741379 25.85265928 10.94536622 13.74290655 2.0234375 4.19140625 C-9.42494045 -6.58225741 -21.47037412 -9.2745021 -36.72265625 -8.83984375 C-48.89393331 -8.23817403 -59.10518449 -2.57898735 -67.41015625 6.24609375 Z " fill="#D9441C" transform="translate(160.2265625,213.55859375)"/>
<path d="M0 0 C3.96 0 7.92 0 12 0 C11.35812082 5.13503344 10.31727753 9.9943454 9 15 C12.23387892 12.04732794 14.22245249 9.12077252 16.25 5.25 C17.1575 3.5175 18.065 1.785 19 0 C22.96 0 26.92 0 31 0 C29.81150401 2.59417906 28.60083229 5.17352341 27.375 7.75 C27.04371094 8.47960937 26.71242188 9.20921875 26.37109375 9.9609375 C24.05285852 14.77236911 22.02688701 17.68174625 17 20 C14.07695033 20.47682953 11.26683056 20.4718633 8.3125 20.375 C7.55388672 20.37371094 6.79527344 20.37242187 6.01367188 20.37109375 C2.18144846 20.31021112 0.25157719 20.16771812 -3 18 C-2.57045059 11.74892565 -1.98598493 5.95795479 0 0 Z " fill="#FA4C1E" transform="translate(281,272)"/>
<path d="M0 0 C9.24 0 18.48 0 28 0 C27.67 1.32 27.34 2.64 27 4 C22.38 4 17.76 4 13 4 C13 4.99 13 5.98 13 7 C16.63 7 20.26 7 24 7 C23.34 8.65 22.68 10.3 22 12 C18.04 12 14.08 12 10 12 C10 12.99 10 13.98 10 15 C13.96 15 17.92 15 22 15 C21.67 16.65 21.34 18.3 21 20 C17.22931168 20.086985 13.45888068 20.14038579 9.6875 20.1875 C8.61564453 20.21263672 7.54378906 20.23777344 6.43945312 20.26367188 C5.41142578 20.27333984 4.38339844 20.28300781 3.32421875 20.29296875 C2.37635498 20.3086792 1.42849121 20.32438965 0.4519043 20.34057617 C-2 20 -2 20 -3.83520508 18.60546875 C-5 17 -5 17 -4.9609375 15.01953125 C-4.67089844 13.92705078 -4.67089844 13.92705078 -4.375 12.8125 C-4.19710938 12.09707031 -4.01921875 11.38164062 -3.8359375 10.64453125 C-2.69919239 7.04837965 -1.32427526 3.53140069 0 0 Z " fill="#F84C1E" transform="translate(313,272)"/>
<path d="M0 0 C8.91 0 17.82 0 27 0 C26.67 1.32 26.34 2.64 26 4 C24.60974609 4.07347656 24.60974609 4.07347656 23.19140625 4.1484375 C21.99386719 4.22320312 20.79632813 4.29796875 19.5625 4.375 C17.77005859 4.47941406 17.77005859 4.47941406 15.94140625 4.5859375 C14.97074219 4.72257813 14.00007813 4.85921875 13 5 C12.67 5.66 12.34 6.32 12 7 C15.63 7 19.26 7 23 7 C22.67 8.65 22.34 10.3 22 12 C18.04 12 14.08 12 10 12 C10 12.99 10 13.98 10 15 C13.96 15 17.92 15 22 15 C21.67 16.65 21.34 18.3 21 20 C17.22931168 20.086985 13.45888068 20.14038579 9.6875 20.1875 C8.61564453 20.21263672 7.54378906 20.23777344 6.43945312 20.26367188 C5.41142578 20.27333984 4.38339844 20.28300781 3.32421875 20.29296875 C2.37635498 20.3086792 1.42849121 20.32438965 0.4519043 20.34057617 C-2 20 -2 20 -3.83666992 18.6730957 C-5 17 -5 17 -4.9375 13.9375 C-4 10 -4 10 0 0 Z " fill="#F94C1E" transform="translate(204,229)"/>
<path d="M0 0 C1.02222656 0.01804688 2.04445313 0.03609375 3.09765625 0.0546875 C5.60774749 0.10160509 8.11587764 0.16723271 10.625 0.25 C10.295 1.57 9.965 2.89 9.625 4.25 C8.62597656 4.31058594 7.62695312 4.37117187 6.59765625 4.43359375 C5.30730469 4.51738281 4.01695312 4.60117188 2.6875 4.6875 C1.39972656 4.76871094 0.11195313 4.84992188 -1.21484375 4.93359375 C-4.23523957 4.89919188 -4.23523957 4.89919188 -5.375 6.25 C1.555 6.745 1.555 6.745 8.625 7.25 C6.55811037 15.51755853 6.55811037 15.51755853 2.71875 18.53125 C-2.23765403 21.10157013 -7.36369269 20.68434481 -12.8125 20.5 C-13.83021484 20.48195312 -14.84792969 20.46390625 -15.89648438 20.4453125 C-18.39031655 20.39847997 -20.88215047 20.33291427 -23.375 20.25 C-22.715 18.6 -22.055 16.95 -21.375 15.25 C-16.425 15.25 -11.475 15.25 -6.375 15.25 C-6.375 14.59 -6.375 13.93 -6.375 13.25 C-10.995 13.25 -15.615 13.25 -20.375 13.25 C-18.1995793 5.03174401 -18.1995793 5.03174401 -14.96875 1.96875 C-9.9147644 -0.44837355 -5.52013347 -0.18519157 0 0 Z " fill="#F74C1E" transform="translate(280.375,228.75)"/>
<path d="M0 0 C3.96 0 7.92 0 12 0 C12.33 1.32 12.66 2.64 13 4 C13.36738281 3.34515625 13.73476563 2.6903125 14.11328125 2.015625 C16 0 16 0 18.91796875 -0.390625 C19.99691406 -0.34421875 21.07585937 -0.2978125 22.1875 -0.25 C23.27417969 -0.21390625 24.36085938 -0.1778125 25.48046875 -0.140625 C26.31191406 -0.09421875 27.14335937 -0.0478125 28 0 C26.49548095 3.59458065 24.39019752 5.72838655 21.5625 8.375 C18.05216086 11.78407936 15.89571355 14.53949753 14 19 C11.23547967 20.38226016 8.9538637 20.09525387 5.875 20.0625 C4.77929688 20.05347656 3.68359375 20.04445312 2.5546875 20.03515625 C1.29011719 20.01775391 1.29011719 20.01775391 0 20 C0.08378906 19.39414063 0.16757812 18.78828125 0.25390625 18.1640625 C1.01692638 11.88604874 0.80637861 6.2718336 0 0 Z " fill="#FA4C1E" transform="translate(294,229)"/>
<path d="M0 0 C13.03586518 9.6292802 23.08263165 23.21022882 25.5546875 39.46875 C26.20988583 51.6781189 25.88379868 63.61884511 19.5546875 74.46875 C18.40701735 71.02573954 18.70952861 70.53314134 19.9296875 67.28125 C24.55502568 52.54869135 23.07697073 36.85280527 16.3046875 23.03125 C8.51088464 8.58261338 -3.15542296 0.86731289 -18.4453125 -4.53125 C-34.82281767 -7.97696085 -51.39386742 -4.27896336 -65.4453125 4.46875 C-68.64691835 6.95695454 -71.60538538 9.57623163 -74.4453125 12.46875 C-74.4453125 9.46875 -74.4453125 9.46875 -72.86328125 7.63671875 C-52.521553 -10.42502595 -23.67316971 -14.8240935 0 0 Z " fill="#F0F0EF" transform="translate(161.4453125,201.53125)"/>
<path d="M0 0 C1.09617923 3.28853769 0.85403541 3.83032497 0 7 C-0.96466283 17.6429194 0.77905848 26.53247082 7.6875 34.875 C14.99658342 42.44125487 23.14031286 45.37639208 33.4375 46.3125 C41.30292422 45.62255051 48.10602016 42.70232251 55 39 C55 39.66 55 40.32 55 41 C46.91183077 47.58424661 38.00452878 51.40750284 27.53515625 51.28515625 C16.9767809 50.09754238 8.57985858 44.46255423 1.8359375 36.54296875 C-3.90075831 28.59703477 -5.2301683 19.6047756 -4 10 C-2.95837239 6.49797613 -1.64759195 3.25840729 0 0 Z " fill="#F3F3F2" transform="translate(97,237)"/>
<path d="M0 0 C1.51400391 0.01740234 1.51400391 0.01740234 3.05859375 0.03515625 C4.07050781 0.04417969 5.08242188 0.05320312 6.125 0.0625 C7.29869141 0.07990234 7.29869141 0.07990234 8.49609375 0.09765625 C7.57582365 3.06163147 6.63199986 6.01757526 5.68359375 8.97265625 C5.42255859 9.81441406 5.16152344 10.65617187 4.89257812 11.5234375 C4.63154297 12.32910156 4.37050781 13.13476562 4.1015625 13.96484375 C3.86590576 14.70847168 3.63024902 15.45209961 3.38745117 16.21826172 C2.49609375 18.09765625 2.49609375 18.09765625 -0.50390625 20.09765625 C-2.984375 20.29296875 -2.984375 20.29296875 -5.69140625 20.22265625 C-6.59246094 20.20460938 -7.49351562 20.1865625 -8.421875 20.16796875 C-9.10894531 20.14476562 -9.79601562 20.1215625 -10.50390625 20.09765625 C-5.68103217 0.22156912 -5.68103217 0.22156912 0 0 Z " fill="#F94C1E" transform="translate(270.50390625,271.90234375)"/>
<path d="M0 0 C3 2.0625 3 2.0625 5 5 C5.07003547 8.99202191 4.58571574 11.15396616 2.3125 14.4375 C-0.77733292 16.52522494 -2.3380808 16.6725974 -6 16 C-8.875 13.9375 -8.875 13.9375 -11 11 C-11.63007693 7.00951279 -11.63021887 4.98314143 -9.4375 1.5625 C-6.01685857 -0.63021887 -3.99048721 -0.63007693 0 0 Z " fill="#F4F4F4" transform="translate(133,242)"/>
<path d="M0 0 C1.75 0.125 1.75 0.125 4 1 C8.02813456 5.79021407 8.02813456 5.79021407 7.9375 9.6875 C6.35714286 13.58571429 6.35714286 13.58571429 4 15 C-0.18333056 14.77589301 -2.49223439 14.3385104 -6 12 C-5.59791618 6.37082652 -3.71069698 3.99613521 0 0 Z " fill="#F4F3F3" transform="translate(109,227)"/>
<path d="M0 0 C2.37956152 2.85846698 4.03663546 5.60785245 3.9375 9.375 C3 11 3 11 0 12 C-1.53949329 12.09182942 -3.08277855 12.13002352 -4.625 12.125 C-5.81996094 12.12886719 -5.81996094 12.12886719 -7.0390625 12.1328125 C-9 12 -9 12 -10 11 C-10.01953125 8.78515625 -10.01953125 8.78515625 -9.8125 6.0625 C-9.75707031 5.16660156 -9.70164062 4.27070313 -9.64453125 3.34765625 C-9 1 -9 1 -7.10546875 -0.3125 C-4.17485584 -1.26943483 -2.85808411 -1.21468575 0 0 Z " fill="#F6F6F5" transform="translate(137,268)"/>
<path d="M0 0 C1.33106125 3.99318374 1.13647721 7.83744513 1 12 C0 13 0 13 -1.9609375 13.0546875 C-8.4608393 12.57087604 -8.4608393 12.57087604 -11.125 9.75 C-12.15350183 6.51756567 -12.39158879 5.11061024 -11 2 C-7.05640315 -0.68881604 -4.57522989 -1.48022144 0 0 Z " fill="#F5F5F4" transform="translate(159,240)"/>
<path d="M0 0 C4.95539872 0.13764996 7.63761194 2.63761194 11 6 C11 7.32 11 8.64 11 10 C8.06491738 12.52553621 6.26427449 14.05880346 2.3125 13.875 C0 13 0 13 -3 11 C-2.88590407 9.54077307 -2.75834456 8.08259402 -2.625 6.625 C-2.55539063 5.81289062 -2.48578125 5.00078125 -2.4140625 4.1640625 C-2 2 -2 2 0 0 Z " fill="#F6F6F6" transform="translate(141,223)"/>
<path d="M0 0 C0.99 0.66 1.98 1.32 3 2 C2.55530671 7.03985731 0.28656638 9.37634988 -3 13 C-5.3125 12.8125 -5.3125 12.8125 -8 12 C-10.06503817 9.43650434 -10.90968386 7.63221299 -11.375 4.375 C-11 2 -11 2 -10 0.125 C-6.76926079 -1.6922908 -3.4920078 -0.936365 0 0 Z " fill="#F7F7F7" transform="translate(154,259)"/>
<path d="M0 0 C1.258125 -0.020625 2.51625 -0.04125 3.8125 -0.0625 C4.52019531 -0.07410156 5.22789063 -0.08570313 5.95703125 -0.09765625 C8 0 8 0 11 1 C12.4783226 3.95664519 12.06032783 6.74229737 12 10 C5.66921899 14.01761103 5.66921899 14.01761103 2.625 13.9375 C1 13 1 13 0 10 C-0.06802967 8.27204648 -0.08495645 6.54164635 -0.0625 4.8125 C-0.05347656 3.91144531 -0.04445313 3.01039063 -0.03515625 2.08203125 C-0.02355469 1.39496094 -0.01195313 0.70789063 0 0 Z " fill="#F7F7F7" transform="translate(100,247)"/>
<path d="M0 0 C0.89847656 -0.00257813 1.79695312 -0.00515625 2.72265625 -0.0078125 C4.9375 0.125 4.9375 0.125 5.9375 1.125 C5.88671875 3.12109375 5.88671875 3.12109375 5.625 5.5625 C5.54636719 6.36558594 5.46773437 7.16867188 5.38671875 7.99609375 C4.9375 10.125 4.9375 10.125 2.9375 12.125 C-0.4375 12.625 -0.4375 12.625 -4.0625 12.125 C-6.5625 9.4375 -6.5625 9.4375 -8.0625 6.125 C-7.9375 3.3125 -7.9375 3.3125 -7.0625 1.125 C-4.56110398 -0.12569801 -2.78857309 -0.00802467 0 0 Z " fill="#F8F7F7" transform="translate(127.0625,219.875)"/>
<path d="M0 0 C2.3125 1.5 2.3125 1.5 4 3 C3.44894091 6.9492568 2.61064629 10.34920174 1 14 C-4.35152885 13.67566492 -7.28280043 10.50295176 -11 7 C-8.60345142 1.89017837 -5.96475896 -0.89471384 0 0 Z " fill="#F8F7F7" transform="translate(118,263)"/>
<path d="M0 0 C0.99 0.33 1.98 0.66 3 1 C6.13725302 13.92851847 4.73173206 29.4598879 -2 41 C-3.14767015 37.55698954 -2.84515889 37.06439134 -1.625 33.8125 C1.81775809 22.99465921 1.37213376 11.14594804 0 0 Z " fill="#D7D5D4" transform="translate(183,235)"/>
<path d="M0 0 C0.66 0.66 1.32 1.32 2 2 C1.07960937 2.13535156 0.15921875 2.27070313 -0.7890625 2.41015625 C-14.68403587 4.7731507 -25.93864269 9.75232126 -36 20 C-36 17 -36 17 -34.41796875 15.16796875 C-26.83955629 8.43897555 -10.97653474 -4.02472941 0 0 Z " fill="#DFDDDD" transform="translate(123,194)"/>
<path d="M0 0 C1.37478516 0.01740234 1.37478516 0.01740234 2.77734375 0.03515625 C3.69644531 0.04417969 4.61554688 0.05320312 5.5625 0.0625 C6.27277344 0.07410156 6.98304688 0.08570313 7.71484375 0.09765625 C7.52921875 0.86078125 7.34359375 1.62390625 7.15234375 2.41015625 C6.48665202 5.18733 6.48665202 5.18733 7.71484375 8.09765625 C6.06909809 8.12453776 4.42322962 8.14399748 2.77734375 8.16015625 C1.86082031 8.17175781 0.94429687 8.18335938 0 8.1953125 C-2.28515625 8.09765625 -2.28515625 8.09765625 -3.28515625 7.09765625 C-3.41015625 4.09765625 -3.41015625 4.09765625 -3.28515625 1.09765625 C-2.28515625 0.09765625 -2.28515625 0.09765625 0 0 Z " fill="#564F4D" transform="translate(253.28515625,308.90234375)"/>
<path d="M0 0 C3.3 0 6.6 0 10 0 C10.92538169 3.70152678 11.08174162 4.63458162 10 8 C9.34 8 8.68 8 8 8 C8 7.01 8 6.02 8 5 C6.02 5 4.04 5 2 5 C2 5.99 2 6.98 2 8 C1.34 8 0.68 8 0 8 C0 5.36 0 2.72 0 0 Z " fill="#68615F" transform="translate(206,309)"/>
<path d="M0 0 C0.8146875 0.00257813 1.629375 0.00515625 2.46875 0.0078125 C3.2834375 0.00523437 4.098125 0.00265625 4.9375 0 C6.96875 0.1328125 6.96875 0.1328125 7.96875 1.1328125 C8.00967937 3.46578683 8.01116723 5.79986475 7.96875 8.1328125 C7.30875 8.1328125 6.64875 8.1328125 5.96875 8.1328125 C5.96875 7.1428125 5.96875 6.1528125 5.96875 5.1328125 C3.65875 5.1328125 1.34875 5.1328125 -1.03125 5.1328125 C-1.03125 6.1228125 -1.03125 7.1128125 -1.03125 8.1328125 C-1.69125 8.1328125 -2.35125 8.1328125 -3.03125 8.1328125 C-3.07366723 5.79986475 -3.07217937 3.46578683 -3.03125 1.1328125 C-2.03125 0.1328125 -2.03125 0.1328125 0 0 Z " fill="#67605E" transform="translate(192.03125,308.8671875)"/>
<path d="M0 0 C3.3 0 6.6 0 10 0 C10.92538169 3.70152678 11.08174162 4.63458162 10 8 C9.34 8 8.68 8 8 8 C8 7.01 8 6.02 8 5 C6.02 5 4.04 5 2 5 C2 5.99 2 6.98 2 8 C1.34 8 0.68 8 0 8 C0 5.36 0 2.72 0 0 Z " fill="#655E5C" transform="translate(233,309)"/>
<path d="M0 0 C1.47906892 -0.02689216 2.95827483 -0.04634621 4.4375 -0.0625 C5.26121094 -0.07410156 6.08492188 -0.08570313 6.93359375 -0.09765625 C9 0 9 0 10 1 C10.04092937 3.33297433 10.04241723 5.66705225 10 8 C9.67 7.01 9.34 6.02 9 5 C6.36 5 3.72 5 1 5 C0.67 5.99 0.34 6.98 0 8 C0 5.36 0 2.72 0 0 Z " fill="#605957" transform="translate(302,309)"/>
<path d="M0 0 C1.78815436 2.68223155 3.17526426 5.31637531 4.625 8.1875 C7.61840385 13.75938043 11.28880905 17.82688923 16 22 C15.34 22.66 14.68 23.32 14 24 C7.88065892 17.73107503 2.17402048 11.29385351 -1 3 C-0.67 2.01 -0.34 1.02 0 0 Z " fill="#CB401B" transform="translate(83,266)"/>
<path d="M0 0 C1.37478516 0.01740234 1.37478516 0.01740234 2.77734375 0.03515625 C3.69644531 0.04417969 4.61554688 0.05320312 5.5625 0.0625 C6.27277344 0.07410156 6.98304688 0.08570313 7.71484375 0.09765625 C7.71484375 0.75765625 7.71484375 1.41765625 7.71484375 2.09765625 C4.74484375 2.09765625 1.77484375 2.09765625 -1.28515625 2.09765625 C-1.28515625 3.41765625 -1.28515625 4.73765625 -1.28515625 6.09765625 C1.68484375 6.09765625 4.65484375 6.09765625 7.71484375 6.09765625 C7.71484375 6.75765625 7.71484375 7.41765625 7.71484375 8.09765625 C4.08484375 8.09765625 0.45484375 8.09765625 -3.28515625 8.09765625 C-3.32757348 5.7647085 -3.32608562 3.43063058 -3.28515625 1.09765625 C-2.28515625 0.09765625 -2.28515625 0.09765625 0 0 Z " fill="#5A5351" transform="translate(175.28515625,308.90234375)"/>
<path d="M0 0 C0.66 0 1.32 0 2 0 C6.42975436 5.23383519 8.35243885 11.46333461 10 18 C9.01 18 8.02 18 7 18 C6.49339844 16.75283203 6.49339844 16.75283203 5.9765625 15.48046875 C5.53054687 14.39378906 5.08453125 13.30710938 4.625 12.1875 C3.96371094 10.56908203 3.96371094 10.56908203 3.2890625 8.91796875 C2.0520881 5.89269888 2.0520881 5.89269888 0 3 C0 2.01 0 1.02 0 0 Z " fill="#E8E7E7" transform="translate(175,217)"/>
<path d="M0 0 C3.45925163 1.2491742 6.14693203 2.67527795 9 5 C9 3.35 9 1.7 9 0 C9.66 0 10.32 0 11 0 C11 2.64 11 5.28 11 8 C8.0280615 6.87548273 5.66559313 5.77706209 3 4 C2.67 5.32 2.34 6.64 2 8 C1.34 8 0.68 8 0 8 C0 5.36 0 2.72 0 0 Z " fill="#524A48" transform="translate(267,309)"/>
<path d="M0 0 C1.32 0 2.64 0 4 0 C3.34 2.97 2.68 5.94 2 9 C0.35 9.33 -1.3 9.66 -3 10 C-2.01 6.7 -1.02 3.4 0 0 Z " fill="#291611" transform="translate(214,277)"/>
<path d="M0 0 C1.18128238 3.54384715 0.71096378 4.62799738 -0.375 8.125 C-1.83282522 13.12420886 -2.57509182 17.81612022 -3 23 C-3.33 23 -3.66 23 -4 23 C-4.48661855 14.37603795 -3.92480024 7.76199333 0 0 Z " fill="#DBDAD9" transform="translate(97,237)"/>
<path d="M0 0 C0.33 0.66 0.66 1.32 1 2 C-8.22551253 8.51936219 -8.22551253 8.51936219 -14 10 C-12.93521458 6.89999181 -12.04202519 6.02537809 -9.1796875 4.296875 C-8.08914062 3.78640625 -6.99859375 3.2759375 -5.875 2.75 C-4.77929688 2.22921875 -3.68359375 1.7084375 -2.5546875 1.171875 C-1.29011719 0.59179688 -1.29011719 0.59179688 0 0 Z " fill="#EFEEEE" transform="translate(151,276)"/>
<path d="M0 0 C0.66 0.66 1.32 1.32 2 2 C0.25215171 2.36463732 -1.49840502 2.7163078 -3.25 3.0625 C-4.71179688 3.35833984 -4.71179688 3.35833984 -6.203125 3.66015625 C-8.868119 3.98397535 -10.48871723 3.85503199 -13 3 C-12.67 2.34 -12.34 1.68 -12 1 C-4.06091966 -1.4728283 -4.06091966 -1.4728283 0 0 Z " fill="#D1CFCE" transform="translate(123,194)"/>
<path d="M0 0 C0.99 0 1.98 0 3 0 C2.67 2.31 2.34 4.62 2 7 C0.35 7 -1.3 7 -3 7 C-1.125 1.125 -1.125 1.125 0 0 Z " fill="#371A12" transform="translate(245,234)"/>
<path d="M0 0 C3.63 0 7.26 0 11 0 C11 0.66 11 1.32 11 2 C9.35 2 7.7 2 6 2 C6 3.98 6 5.96 6 8 C5.67 8 5.34 8 5 8 C5 6.02 5 4.04 5 2 C3.35 2 1.7 2 0 2 C0 1.34 0 0.68 0 0 Z " fill="#4E4643" transform="translate(284,309)"/>
<path d="M0 0 C0.66 1.32 1.32 2.64 2 4 C0.625 7.75 0.625 7.75 -1 11 C-1.66 10.34 -2.32 9.68 -3 9 C-2.01 6.03 -1.02 3.06 0 0 Z " fill="#4B1F13" transform="translate(230,277)"/>
<path d="M0 0 C0.33 0.66 0.66 1.32 1 2 C-1.31 3.65 -3.62 5.3 -6 7 C-6.33 6.01 -6.66 5.02 -7 4 C-4.69 2.68 -2.38 1.36 0 0 Z " fill="#D5D3D2" transform="translate(151,276)"/>
<path d="M0 0 C0.66 0.66 1.32 1.32 2 2 C0.68 4.31 -0.64 6.62 -2 9 C-2.66 8.34 -3.32 7.68 -4 7 C-2.68 4.69 -1.36 2.38 0 0 Z " fill="#CC411B" transform="translate(171,271)"/>
<path d="M0 0 C1.80411967 2.75924185 2.0127245 3.88972103 1.625 7.25 C1.41875 8.1575 1.2125 9.065 1 10 C0.67 10 0.34 10 0 10 C-1.125 2.25 -1.125 2.25 0 0 Z " fill="#BF3D1B" transform="translate(175,237)"/>
</svg>
